<?xml version="1.0" encoding="UTF-8" standalone="no"?>
<!-- Created with Inkscape (http://www.inkscape.org/) -->

<svg
   xmlns:dc="http://purl.org/dc/elements/1.1/"
   xmlns:cc="http://creativecommons.org/ns#"
   xmlns:rdf="http://www.w3.org/1999/02/22-rdf-syntax-ns#"
   xmlns:svg="http://www.w3.org/2000/svg"
   xmlns="http://www.w3.org/2000/svg"
   xmlns:sodipodi="http://sodipodi.sourceforge.net/DTD/sodipodi-0.dtd"
   xmlns:inkscape="http://www.inkscape.org/namespaces/inkscape"
   width="375"
   height="328.75049"
   id="svg2"
   version="1.1"
   inkscape:version="0.48.1 "
   sodipodi:docname="adpmulti_logo.svg">
  <defs
     id="defs4" />
  <sodipodi:namedview
     id="base"
     pagecolor="#ffffff"
     bordercolor="#666666"
     borderopacity="1.0"
     inkscape:pageopacity="0.0"
     inkscape:pageshadow="2"
     inkscape:zoom="1.4"
     inkscape:cx="223.71351"
     inkscape:cy="211.25021"
     inkscape:document-units="px"
     inkscape:current-layer="g2995"
     showgrid="false"
     fit-margin-top="0"
     fit-margin-left="0"
     fit-margin-right="0"
     fit-margin-bottom="0"
     inkscape:window-width="1280"
     inkscape:window-height="962"
     inkscape:window-x="-8"
     inkscape:window-y="-8"
     inkscape:window-maximized="1" />
  <metadata
     id="metadata7">
    <rdf:RDF>
      <cc:Work
         rdf:about="">
        <dc:format>image/svg+xml</dc:format>
        <dc:type
           rdf:resource="http://purl.org/dc/dcmitype/StillImage" />
        <dc:title></dc:title>
      </cc:Work>
    </rdf:RDF>
  </metadata>
  <g
     inkscape:label="Layer 1"
     inkscape:groupmode="layer"
     id="layer1"
     transform="translate(-185,-361.33656)">
    <g
       transform="matrix(1.25,0,0,-1.25,183.125,705.26281)"
       inkscape:label="ink_ext_XXXXXX"
       id="g2993">
      <g
         transform="scale(0.1,0.1)"
         id="g2995">
        <path
           id="path2997"
           style="fill:none;stroke:#c8c8c8;stroke-width:30;stroke-linecap:square;stroke-linejoin:miter;stroke-miterlimit:10;stroke-opacity:1;stroke-dasharray:none"
           d="m 85,1031.41 180,-20"
           inkscape:connector-curvature="0" />
        <path
           id="path2999"
           style="fill:none;stroke:#c8c8c8;stroke-width:30;stroke-linecap:square;stroke-linejoin:miter;stroke-miterlimit:10;stroke-opacity:1;stroke-dasharray:none"
           d="m 265,1011.41 180,130"
           inkscape:connector-curvature="0" />
        <path
           id="path3001"
           style="fill:none;stroke:#c8c8c8;stroke-width:30;stroke-linecap:square;stroke-linejoin:miter;stroke-miterlimit:10;stroke-opacity:1;stroke-dasharray:none"
           d="m 445,1141.41 150,220"
           inkscape:connector-curvature="0" />
        <path
           id="path3003"
           style="fill:none;stroke:#c8c8c8;stroke-width:30;stroke-linecap:square;stroke-linejoin:miter;stroke-miterlimit:10;stroke-opacity:1;stroke-dasharray:none"
           d="m 595,1361.41 50,320"
           inkscape:connector-curvature="0" />
        <path
           id="path3005"
           style="fill:none;stroke:#c8c8c8;stroke-width:30;stroke-linecap:square;stroke-linejoin:miter;stroke-miterlimit:10;stroke-opacity:1;stroke-dasharray:none"
           d="m 645,1681.41 130,300"
           inkscape:connector-curvature="0" />
        <path
           id="path3007"
           style="fill:none;stroke:#c8c8c8;stroke-width:30;stroke-linecap:square;stroke-linejoin:miter;stroke-miterlimit:10;stroke-opacity:1;stroke-dasharray:none"
           d="m 775,1981.41 170,270"
           inkscape:connector-curvature="0" />
        <path
           id="path3009"
           style="fill:none;stroke:#c8c8c8;stroke-width:30;stroke-linecap:square;stroke-linejoin:miter;stroke-miterlimit:10;stroke-opacity:1;stroke-dasharray:none"
           d="m 945,2251.41 230,230"
           inkscape:connector-curvature="0" />
        <path
           id="path3011"
           style="fill:none;stroke:#c8c8c8;stroke-width:30;stroke-linecap:square;stroke-linejoin:miter;stroke-miterlimit:10;stroke-opacity:1;stroke-dasharray:none"
           d="m 1175,2481.41 280,140"
           inkscape:connector-curvature="0" />
        <path
           id="path3013"
           style="fill:none;stroke:#c8c8c8;stroke-width:30;stroke-linecap:square;stroke-linejoin:miter;stroke-miterlimit:10;stroke-opacity:1;stroke-dasharray:none"
           d="m 1455,2621.41 310,60"
           inkscape:connector-curvature="0" />
        <path
           id="path3015"
           style="fill:none;stroke:#c8c8c8;stroke-width:30;stroke-linecap:square;stroke-linejoin:miter;stroke-miterlimit:10;stroke-opacity:1;stroke-dasharray:none"
           d="m 1765,2681.41 300,-10"
           inkscape:connector-curvature="0" />
        <path
           id="path3017"
           style="fill:none;stroke:#c8c8c8;stroke-width:30;stroke-linecap:square;stroke-linejoin:miter;stroke-miterlimit:10;stroke-opacity:1;stroke-dasharray:none"
           d="m 2065,2671.41 280,-70"
           inkscape:connector-curvature="0" />
        <path
           id="path3019"
           style="fill:none;stroke:#c8c8c8;stroke-width:30;stroke-linecap:square;stroke-linejoin:miter;stroke-miterlimit:10;stroke-opacity:1;stroke-dasharray:none"
           d="m 2345,2601.41 230,-170"
           inkscape:connector-curvature="0" />
        <path
           id="path3021"
           style="fill:none;stroke:#c8c8c8;stroke-width:30;stroke-linecap:square;stroke-linejoin:miter;stroke-miterlimit:10;stroke-opacity:1;stroke-dasharray:none"
           d="m 2575,2431.41 140,-250"
           inkscape:connector-curvature="0" />
        <path
           id="path3023"
           style="fill:none;stroke:#c8c8c8;stroke-width:30;stroke-linecap:square;stroke-linejoin:miter;stroke-miterlimit:10;stroke-opacity:1;stroke-dasharray:none"
           d="m 2715,2181.41 -40,-170"
           inkscape:connector-curvature="0" />
        <path
           id="path3025"
           style="fill:none;stroke:#c8c8c8;stroke-width:30;stroke-linecap:square;stroke-linejoin:miter;stroke-miterlimit:10;stroke-opacity:1;stroke-dasharray:none"
           d="m 2675,2011.41 -190,-20"
           inkscape:connector-curvature="0" />
        <path
           id="path3027"
           style="fill:none;stroke:#c8c8c8;stroke-width:30;stroke-linecap:square;stroke-linejoin:miter;stroke-miterlimit:10;stroke-opacity:1;stroke-dasharray:none"
           d="m 2485,1991.41 -180,160"
           inkscape:connector-curvature="0" />
        <path
           id="path3029"
           style="fill:none;stroke:#c8c8c8;stroke-width:30;stroke-linecap:square;stroke-linejoin:miter;stroke-miterlimit:10;stroke-opacity:1;stroke-dasharray:none"
           d="m 2305,2151.41 -200,150"
           inkscape:connector-curvature="0" />
        <path
           id="path3031"
           style="fill:none;stroke:#c8c8c8;stroke-width:30;stroke-linecap:square;stroke-linejoin:miter;stroke-miterlimit:10;stroke-opacity:1;stroke-dasharray:none"
           d="m 2105,2301.41 -230,70"
           inkscape:connector-curvature="0" />
        <path
           id="path3033"
           style="fill:none;stroke:#c8c8c8;stroke-width:30;stroke-linecap:square;stroke-linejoin:miter;stroke-miterlimit:10;stroke-opacity:1;stroke-dasharray:none"
           d="m 1875,2371.41 -240,0"
           inkscape:connector-curvature="0" />
        <path
           id="path3035"
           style="fill:none;stroke:#c8c8c8;stroke-width:30;stroke-linecap:square;stroke-linejoin:miter;stroke-miterlimit:10;stroke-opacity:1;stroke-dasharray:none"
           d="m 1635,2371.41 -220,-70"
           inkscape:connector-curvature="0" />
        <path
           id="path3037"
           style="fill:none;stroke:#c8c8c8;stroke-width:30;stroke-linecap:square;stroke-linejoin:miter;stroke-miterlimit:10;stroke-opacity:1;stroke-dasharray:none"
           d="m 1415,2301.41 -170,-130"
           inkscape:connector-curvature="0" />
        <path
           id="path3039"
           style="fill:none;stroke:#c8c8c8;stroke-width:30;stroke-linecap:square;stroke-linejoin:miter;stroke-miterlimit:10;stroke-opacity:1;stroke-dasharray:none"
           d="m 1245,2171.41 -100,-190"
           inkscape:connector-curvature="0" />
        <path
           id="path3041"
           style="fill:none;stroke:#c8c8c8;stroke-width:30;stroke-linecap:square;stroke-linejoin:miter;stroke-miterlimit:10;stroke-opacity:1;stroke-dasharray:none"
           d="m 1145,1981.41 40,-200"
           inkscape:connector-curvature="0" />
        <path
           id="path3043"
           style="fill:none;stroke:#c8c8c8;stroke-width:30;stroke-linecap:square;stroke-linejoin:miter;stroke-miterlimit:10;stroke-opacity:1;stroke-dasharray:none"
           d="m 1185,1781.41 70,-180"
           inkscape:connector-curvature="0" />
        <path
           id="path3045"
           style="fill:none;stroke:#c8c8c8;stroke-width:30;stroke-linecap:square;stroke-linejoin:miter;stroke-miterlimit:10;stroke-opacity:1;stroke-dasharray:none"
           d="m 1255,1601.41 80,-180"
           inkscape:connector-curvature="0" />
        <path
           id="path3047"
           style="fill:none;stroke:#c8c8c8;stroke-width:30;stroke-linecap:square;stroke-linejoin:miter;stroke-miterlimit:10;stroke-opacity:1;stroke-dasharray:none"
           d="m 1335,1421.41 90,-180"
           inkscape:connector-curvature="0" />
        <path
           id="path3049"
           style="fill:none;stroke:#c8c8c8;stroke-width:30;stroke-linecap:square;stroke-linejoin:miter;stroke-miterlimit:10;stroke-opacity:1;stroke-dasharray:none"
           d="m 1425,1241.41 90,-170"
           inkscape:connector-curvature="0" />
        <path
           id="path3051"
           style="fill:none;stroke:#c8c8c8;stroke-width:30;stroke-linecap:square;stroke-linejoin:miter;stroke-miterlimit:10;stroke-opacity:1;stroke-dasharray:none"
           d="M 1515,1071.41 1615,901.406"
           inkscape:connector-curvature="0" />
        <path
           id="path3053"
           style="fill:none;stroke:#c8c8c8;stroke-width:30;stroke-linecap:square;stroke-linejoin:miter;stroke-miterlimit:10;stroke-opacity:1;stroke-dasharray:none"
           d="m 1615,901.406 190,-60"
           inkscape:connector-curvature="0" />
        <path
           id="path3055"
           style="fill:none;stroke:#c8c8c8;stroke-width:30;stroke-linecap:square;stroke-linejoin:miter;stroke-miterlimit:10;stroke-opacity:1;stroke-dasharray:none"
           d="m 1805,841.406 220,40"
           inkscape:connector-curvature="0" />
        <path
           id="path3057"
           style="fill:none;stroke:#c8c8c8;stroke-width:30;stroke-linecap:square;stroke-linejoin:miter;stroke-miterlimit:10;stroke-opacity:1;stroke-dasharray:none"
           d="m 2025,881.406 210,130.004"
           inkscape:connector-curvature="0" />
        <path
           id="path3059"
           style="fill:none;stroke:#c8c8c8;stroke-width:30;stroke-linecap:square;stroke-linejoin:miter;stroke-miterlimit:10;stroke-opacity:1;stroke-dasharray:none"
           d="m 2235,1011.41 160,210"
           inkscape:connector-curvature="0" />
        <path
           id="path3061"
           style="fill:none;stroke:#c8c8c8;stroke-width:30;stroke-linecap:square;stroke-linejoin:miter;stroke-miterlimit:10;stroke-opacity:1;stroke-dasharray:none"
           d="m 2395,1221.41 150,220"
           inkscape:connector-curvature="0" />
        <path
           id="path3063"
           style="fill:none;stroke:#c8c8c8;stroke-width:30;stroke-linecap:square;stroke-linejoin:miter;stroke-miterlimit:10;stroke-opacity:1;stroke-dasharray:none"
           d="m 2545,1441.41 190,100"
           inkscape:connector-curvature="0" />
        <path
           id="path3065"
           style="fill:none;stroke:#c8c8c8;stroke-width:30;stroke-linecap:square;stroke-linejoin:miter;stroke-miterlimit:10;stroke-opacity:1;stroke-dasharray:none"
           d="m 2735,1541.41 170,-80"
           inkscape:connector-curvature="0" />
        <path
           id="path3067"
           style="fill:none;stroke:#c8c8c8;stroke-width:30;stroke-linecap:square;stroke-linejoin:miter;stroke-miterlimit:10;stroke-opacity:1;stroke-dasharray:none"
           d="m 2905,1461.41 50,-270"
           inkscape:connector-curvature="0" />
        <path
           id="path3069"
           style="fill:none;stroke:#c8c8c8;stroke-width:30;stroke-linecap:square;stroke-linejoin:miter;stroke-miterlimit:10;stroke-opacity:1;stroke-dasharray:none"
           d="M 2955,1191.41 2885,921.406"
           inkscape:connector-curvature="0" />
        <path
           id="path3071"
           style="fill:none;stroke:#c8c8c8;stroke-width:30;stroke-linecap:square;stroke-linejoin:miter;stroke-miterlimit:10;stroke-opacity:1;stroke-dasharray:none"
           d="m 2885,921.406 -150,-210"
           inkscape:connector-curvature="0" />
        <path
           id="path3073"
           style="fill:none;stroke:#c8c8c8;stroke-width:30;stroke-linecap:square;stroke-linejoin:miter;stroke-miterlimit:10;stroke-opacity:1;stroke-dasharray:none"
           d="m 2735,711.406 -240,-140"
           inkscape:connector-curvature="0" />
        <path
           id="path3075"
           style="fill:none;stroke:#c8c8c8;stroke-width:30;stroke-linecap:square;stroke-linejoin:miter;stroke-miterlimit:10;stroke-opacity:1;stroke-dasharray:none"
           d="m 2495,571.406 -280,-40"
           inkscape:connector-curvature="0" />
        <path
           id="path3077"
           style="fill:none;stroke:#c8c8c8;stroke-width:30;stroke-linecap:square;stroke-linejoin:miter;stroke-miterlimit:10;stroke-opacity:1;stroke-dasharray:none"
           d="m 2215,531.406 -290,-30"
           inkscape:connector-curvature="0" />
        <path
           id="path3079"
           style="fill:none;stroke:#c8c8c8;stroke-width:30;stroke-linecap:square;stroke-linejoin:miter;stroke-miterlimit:10;stroke-opacity:1;stroke-dasharray:none"
           d="m 1925,501.406 -310,30"
           inkscape:connector-curvature="0" />
        <path
           id="path3081"
           style="fill:none;stroke:#c8c8c8;stroke-width:30;stroke-linecap:square;stroke-linejoin:miter;stroke-miterlimit:10;stroke-opacity:1;stroke-dasharray:none"
           d="m 1615,531.406 -310,70"
           inkscape:connector-curvature="0" />
        <path
           id="path3083"
           style="fill:none;stroke:#c8c8c8;stroke-width:30;stroke-linecap:square;stroke-linejoin:miter;stroke-miterlimit:10;stroke-opacity:1;stroke-dasharray:none"
           d="m 1305,601.406 -320,100"
           inkscape:connector-curvature="0" />
        <path
           id="path3085"
           style="fill:none;stroke:#c8c8c8;stroke-width:30;stroke-linecap:square;stroke-linejoin:miter;stroke-miterlimit:10;stroke-opacity:1;stroke-dasharray:none"
           d="m 985,701.406 -260,-30"
           inkscape:connector-curvature="0" />
        <path
           id="path3087"
           style="fill:none;stroke:#c8c8c8;stroke-width:30;stroke-linecap:square;stroke-linejoin:miter;stroke-miterlimit:10;stroke-opacity:1;stroke-dasharray:none"
           d="m 725,671.406 -210,-110"
           inkscape:connector-curvature="0" />
        <path
           id="path3089"
           style="fill:none;stroke:#c8c8c8;stroke-width:30;stroke-linecap:square;stroke-linejoin:miter;stroke-miterlimit:10;stroke-opacity:1;stroke-dasharray:none"
           d="m 515,561.406 -90,-200"
           inkscape:connector-curvature="0" />
        <path
           id="path3091"
           style="fill:none;stroke:#c8c8c8;stroke-width:30;stroke-linecap:square;stroke-linejoin:miter;stroke-miterlimit:10;stroke-opacity:1;stroke-dasharray:none"
           d="m 425,361.406 -70,-160"
           inkscape:connector-curvature="0" />
        <path
           id="path3093"
           style="fill:none;stroke:#0000ff;stroke-width:30;stroke-linecap:square;stroke-linejoin:miter;stroke-miterlimit:10;stroke-opacity:1;stroke-dasharray:none"
           d="m 945,2251.41 300,-80"
           inkscape:connector-curvature="0" />
        <path
           id="path3095"
           style="fill:none;stroke:#0000ff;stroke-width:30;stroke-linecap:square;stroke-linejoin:miter;stroke-miterlimit:10;stroke-opacity:1;stroke-dasharray:none"
           d="m 1805,841.406 -190,-310"
           inkscape:connector-curvature="0" />
        <path
           id="path3097"
           style="fill:none;stroke:#0000ff;stroke-width:30;stroke-linecap:square;stroke-linejoin:miter;stroke-miterlimit:10;stroke-opacity:1;stroke-dasharray:none"
           d="m 775,1981.41 370,0"
           inkscape:connector-curvature="0" />
        <path
           id="path3099"
           style="fill:none;stroke:#0000ff;stroke-width:30;stroke-linecap:square;stroke-linejoin:miter;stroke-miterlimit:10;stroke-opacity:1;stroke-dasharray:none"
           d="m 2715,2181.41 190,-720"
           inkscape:connector-curvature="0" />
        <path
           id="path3101"
           style="fill:none;stroke:#0000ff;stroke-width:30;stroke-linecap:square;stroke-linejoin:miter;stroke-miterlimit:10;stroke-opacity:1;stroke-dasharray:none"
           d="m 1175,2481.41 240,-180"
           inkscape:connector-curvature="0" />
        <path
           id="path3103"
           style="fill:none;stroke:#0000ff;stroke-width:30;stroke-linecap:square;stroke-linejoin:miter;stroke-miterlimit:10;stroke-opacity:1;stroke-dasharray:none"
           d="m 1615,901.406 -310,-300"
           inkscape:connector-curvature="0" />
        <path
           id="path3105"
           style="fill:none;stroke:#0000ff;stroke-width:30;stroke-linecap:square;stroke-linejoin:miter;stroke-miterlimit:10;stroke-opacity:1;stroke-dasharray:none"
           d="M 265,1011.41 515,561.406"
           inkscape:connector-curvature="0" />
        <path
           id="path3107"
           style="fill:none;stroke:#0000ff;stroke-width:30;stroke-linecap:square;stroke-linejoin:miter;stroke-miterlimit:10;stroke-opacity:1;stroke-dasharray:none"
           d="M 2235,1011.41 2215,531.406"
           inkscape:connector-curvature="0" />
        <path
           id="path3109"
           style="fill:none;stroke:#0000ff;stroke-width:30;stroke-linecap:square;stroke-linejoin:miter;stroke-miterlimit:10;stroke-opacity:1;stroke-dasharray:none"
           d="M 595,1361.41 985,701.406"
           inkscape:connector-curvature="0" />
        <path
           id="path3111"
           style="fill:none;stroke:#0000ff;stroke-width:30;stroke-linecap:square;stroke-linejoin:miter;stroke-miterlimit:10;stroke-opacity:1;stroke-dasharray:none"
           d="M 445,1141.41 725,671.406"
           inkscape:connector-curvature="0" />
        <path
           id="path3113"
           style="fill:none;stroke:#0000ff;stroke-width:30;stroke-linecap:square;stroke-linejoin:miter;stroke-miterlimit:10;stroke-opacity:1;stroke-dasharray:none"
           d="m 1455,2621.41 180,-250"
           inkscape:connector-curvature="0" />
        <path
           id="path3115"
           style="fill:none;stroke:#0000ff;stroke-width:30;stroke-linecap:square;stroke-linejoin:miter;stroke-miterlimit:10;stroke-opacity:1;stroke-dasharray:none"
           d="m 2675,2011.41 60,-470"
           inkscape:connector-curvature="0" />
        <path
           id="path3117"
           style="fill:none;stroke:#0000ff;stroke-width:30;stroke-linecap:square;stroke-linejoin:miter;stroke-miterlimit:10;stroke-opacity:1;stroke-dasharray:none"
           d="m 2485,1991.41 60,-550"
           inkscape:connector-curvature="0" />
        <path
           id="path3119"
           style="fill:none;stroke:#0000ff;stroke-width:30;stroke-linecap:square;stroke-linejoin:miter;stroke-miterlimit:10;stroke-opacity:1;stroke-dasharray:none"
           d="m 2065,2671.41 40,-370"
           inkscape:connector-curvature="0" />
        <path
           id="path3121"
           style="fill:none;stroke:#0000ff;stroke-width:30;stroke-linecap:square;stroke-linejoin:miter;stroke-miterlimit:10;stroke-opacity:1;stroke-dasharray:none"
           d="m 1765,2681.41 110,-310"
           inkscape:connector-curvature="0" />
        <path
           id="path3123"
           style="fill:none;stroke:#0000ff;stroke-width:30;stroke-linecap:square;stroke-linejoin:miter;stroke-miterlimit:10;stroke-opacity:1;stroke-dasharray:none"
           d="m 2025,881.406 -100,-380"
           inkscape:connector-curvature="0" />
        <path
           id="path3125"
           style="fill:#ffffff;fill-opacity:1;fill-rule:nonzero;stroke:none"
           d="m 15,1051.41 0,-50 c 0,-27.617 22.3867,-50.004 50,-50.004 l 40,0 c 27.613,0 50,22.387 50,50.004 l 0,50 c 0,27.61 -22.387,50 -50,50 l -40,0 c -27.6133,0 -50,-22.39 -50,-50"
           inkscape:connector-curvature="0" />
        <path
           id="path3127"
           style="fill:#000000;fill-opacity:1;fill-rule:nonzero;stroke:none"
           d="m 40.3125,1013.44 16.4063,1.72 c 0,0 0.7812,-5.47 4.2187,-8.75 0,0 3.4375,-3.28 7.9688,-3.28 0,0 5.1562,0 8.75,4.21 0,0 3.5937,4.22 3.5937,12.66 0,0 0,7.81 -3.5937,11.8 0,0 -3.5938,3.98 -9.2188,3.98 0,0 -7.1875,0 -12.8125,-6.25 l -13.2812,1.88 8.4375,44.68 43.5937,0 0,-15.31 -31.0937,0 -2.6563,-14.69 c 0,0 5.625,2.82 11.25,2.82 0,0 10.9375,0 18.5938,-7.97 0,0 7.6562,-7.97 7.6562,-20.63 0,0 0,-10.62 -6.0937,-19.06 0,0 -8.4375,-11.25 -23.2813,-11.25 0,0 -11.875,0 -19.375,6.328 0,0 -7.5,6.332 -9.0625,17.112 z m 69.8635,33.28 -2.969,16.09 0,14.53 17.813,0 0,-14.53 -2.657,-16.09 -12.187,0"
           inkscape:connector-curvature="0" />
        <path
           id="path3129"
           style="fill:#ffffff;fill-opacity:1;fill-rule:nonzero;stroke:none"
           d="m 205,1031.41 0,-50.004 c 0,-27.613 22.387,-50 50,-50 l 20,0 c 27.613,0 50,22.387 50,50 l 0,50.004 c 0,27.61 -22.387,50 -50,50 l -20,0 c -27.613,0 -50,-22.39 -50,-50"
           inkscape:connector-curvature="0" />
        <path
           id="path3131"
           style="fill:#000000;fill-opacity:1;fill-rule:nonzero;stroke:none"
           d="m 273.75,1002.97 0,14.53 37.344,0 0,-34.219 c 0,0 -5.469,-5.312 -15.781,-9.297 0,0 -10.313,-3.984 -20.938,-3.984 0,0 -13.437,0 -23.516,5.625 0,0 -10.078,5.625 -15.078,16.172 0,0 -5,10.543 -5,22.893 0,0 0,13.44 5.625,23.83 0,0 5.625,10.39 16.407,16.01 0,0 8.281,4.22 20.625,4.22 0,0 15.937,0 24.921,-6.72 0,0 8.985,-6.72 11.641,-18.44 l -17.187,-3.28 c 0,0 -1.875,6.25 -6.875,9.92 0,0 -5,3.68 -12.5,3.68 0,0 -11.407,0 -18.125,-7.19 0,0 -6.719,-7.19 -6.719,-21.41 0,0 0,-15.31 6.797,-22.888 0,0 6.797,-7.578 17.89,-7.578 0,0 5.469,0 10.938,2.109 0,0 5.469,2.11 9.375,5.078 l 0,10.939 -19.844,0"
           inkscape:connector-curvature="0" />
        <path
           id="path3133"
           style="fill:#ffffff;fill-opacity:1;fill-rule:nonzero;stroke:none"
           d="m 385,1161.41 0,-50 c 0,-27.62 22.387,-50 50,-50 l 20,0 c 27.613,0 50,22.38 50,50 l 0,50 c 0,27.61 -22.387,50 -50,50 l -20,0 c -27.613,0 -50,-22.39 -50,-50"
           inkscape:connector-curvature="0" />
        <path
           id="path3135"
           style="fill:#000000;fill-opacity:1;fill-rule:nonzero;stroke:none"
           d="m 468.75,1132.97 16.719,-5.31 c 0,0 -3.75,-14.07 -12.813,-20.86 0,0 -9.062,-6.8 -22.812,-6.8 0,0 -17.188,0 -28.203,11.64 0,0 -11.016,11.64 -11.016,31.95 0,0 0,21.41 11.094,33.29 0,0 11.094,11.87 29.219,11.87 0,0 15.781,0 25.625,-9.22 0,0 5.781,-5.62 8.75,-15.94 l -17.188,-4.06 c 0,0 -1.562,6.72 -6.406,10.55 0,0 -4.844,3.83 -11.719,3.83 0,0 -9.531,0 -15.469,-6.8 0,0 -5.937,-6.8 -5.937,-22.27 0,0 0,-16.25 5.859,-23.12 0,0 5.86,-6.88 15.235,-6.88 0,0 6.875,0 11.875,4.38 0,0 5,4.37 7.187,13.75"
           inkscape:connector-curvature="0" />
        <path
           id="path3137"
           style="fill:#ffffff;fill-opacity:1;fill-rule:nonzero;stroke:none"
           d="m 535,1381.41 0,-50 c 0,-27.62 22.387,-50 50,-50 l 20,0 c 27.613,0 50,22.38 50,50 l 0,50 c 0,27.61 -22.387,50 -50,50 l -20,0 c -27.613,0 -50,-22.39 -50,-50"
           inkscape:connector-curvature="0" />
        <path
           id="path3139"
           style="fill:#000000;fill-opacity:1;fill-rule:nonzero;stroke:none"
           d="m 618.75,1352.97 16.719,-5.31 c 0,0 -3.75,-14.07 -12.813,-20.86 0,0 -9.062,-6.8 -22.812,-6.8 0,0 -17.188,0 -28.203,11.64 0,0 -11.016,11.64 -11.016,31.95 0,0 0,21.41 11.094,33.29 0,0 11.094,11.87 29.219,11.87 0,0 15.781,0 25.625,-9.22 0,0 5.781,-5.62 8.75,-15.94 l -17.188,-4.06 c 0,0 -1.562,6.72 -6.406,10.55 0,0 -4.844,3.83 -11.719,3.83 0,0 -9.531,0 -15.469,-6.8 0,0 -5.937,-6.8 -5.937,-22.27 0,0 0,-16.25 5.859,-23.12 0,0 5.86,-6.88 15.235,-6.88 0,0 6.875,0 11.875,4.38 0,0 5,4.37 7.187,13.75"
           inkscape:connector-curvature="0" />
        <path
           id="path3141"
           style="fill:#ffffff;fill-opacity:1;fill-rule:nonzero;stroke:none"
           d="m 585,1701.41 0,-50 c 0,-27.62 22.387,-50 50,-50 l 20,0 c 27.613,0 50,22.38 50,50 l 0,50 c 0,27.61 -22.387,50 -50,50 l -20,0 c -27.613,0 -50,-22.39 -50,-50"
           inkscape:connector-curvature="0" />
        <path
           id="path3143"
           style="fill:#000000;fill-opacity:1;fill-rule:nonzero;stroke:none"
           d="m 653.75,1672.97 0,14.53 37.344,0 0,-34.22 c 0,0 -5.469,-5.31 -15.781,-9.3 0,0 -10.313,-3.98 -20.938,-3.98 0,0 -13.437,0 -23.516,5.63 0,0 -10.078,5.62 -15.078,16.17 0,0 -5,10.54 -5,22.89 0,0 0,13.44 5.625,23.83 0,0 5.625,10.39 16.407,16.01 0,0 8.281,4.22 20.625,4.22 0,0 15.937,0 24.921,-6.72 0,0 8.985,-6.72 11.641,-18.44 l -17.187,-3.28 c 0,0 -1.875,6.25 -6.875,9.92 0,0 -5,3.68 -12.5,3.68 0,0 -11.407,0 -18.125,-7.19 0,0 -6.719,-7.19 -6.719,-21.41 0,0 0,-15.31 6.797,-22.89 0,0 6.797,-7.58 17.89,-7.58 0,0 5.469,0 10.938,2.11 0,0 5.469,2.11 9.375,5.08 l 0,10.94 -19.844,0"
           inkscape:connector-curvature="0" />
        <path
           id="path3145"
           style="fill:#ffffff;fill-opacity:1;fill-rule:nonzero;stroke:none"
           d="m 715,2001.41 0,-50 c 0,-27.62 22.387,-50 50,-50 l 20,0 c 27.613,0 50,22.38 50,50 l 0,50 c 0,27.61 -22.387,50 -50,50 l -20,0 c -27.613,0 -50,-22.39 -50,-50"
           inkscape:connector-curvature="0" />
        <path
           id="path3147"
           style="fill:#000000;fill-opacity:1;fill-rule:nonzero;stroke:none"
           d="m 783.75,1972.97 0,14.53 37.344,0 0,-34.22 c 0,0 -5.469,-5.31 -15.781,-9.3 0,0 -10.313,-3.98 -20.938,-3.98 0,0 -13.437,0 -23.516,5.63 0,0 -10.078,5.62 -15.078,16.17 0,0 -5,10.54 -5,22.89 0,0 0,13.44 5.625,23.83 0,0 5.625,10.39 16.407,16.01 0,0 8.281,4.22 20.625,4.22 0,0 15.937,0 24.921,-6.72 0,0 8.985,-6.72 11.641,-18.44 l -17.187,-3.28 c 0,0 -1.875,6.25 -6.875,9.92 0,0 -5,3.68 -12.5,3.68 0,0 -11.407,0 -18.125,-7.19 0,0 -6.719,-7.19 -6.719,-21.41 0,0 0,-15.31 6.797,-22.89 0,0 6.797,-7.58 17.89,-7.58 0,0 5.469,0 10.938,2.11 0,0 5.469,2.11 9.375,5.08 l 0,10.94 -19.844,0"
           inkscape:connector-curvature="0" />
        <path
           id="path3149"
           style="fill:#ffffff;fill-opacity:1;fill-rule:nonzero;stroke:none"
           d="m 885,2271.41 0,-50 c 0,-27.62 22.387,-50 50,-50 l 20,0 c 27.613,0 50,22.38 50,50 l 0,50 c 0,27.61 -22.387,50 -50,50 l -20,0 c -27.613,0 -50,-22.39 -50,-50"
           inkscape:connector-curvature="0" />
        <path
           id="path3151"
           style="fill:#000000;fill-opacity:1;fill-rule:nonzero;stroke:none"
           d="m 953.75,2242.97 0,14.53 37.344,0 0,-34.22 c 0,0 -5.469,-5.31 -15.781,-9.3 0,0 -10.313,-3.98 -20.938,-3.98 0,0 -13.437,0 -23.516,5.63 0,0 -10.078,5.62 -15.078,16.17 0,0 -5,10.54 -5,22.89 0,0 0,13.44 5.625,23.83 0,0 5.625,10.39 16.407,16.01 0,0 8.281,4.22 20.625,4.22 0,0 15.937,0 24.921,-6.72 0,0 8.985,-6.72 11.641,-18.44 l -17.187,-3.28 c 0,0 -1.875,6.25 -6.875,9.92 0,0 -5,3.68 -12.5,3.68 0,0 -11.407,0 -18.125,-7.19 0,0 -6.719,-7.19 -6.719,-21.41 0,0 0,-15.31 6.797,-22.89 0,0 6.797,-7.58 17.89,-7.58 0,0 5.469,0 10.938,2.11 0,0 5.469,2.11 9.375,5.08 l 0,10.94 -19.844,0"
           inkscape:connector-curvature="0" />
        <path
           id="path3153"
           style="fill:#ffffff;fill-opacity:1;fill-rule:nonzero;stroke:none"
           d="m 1115,2501.41 0,-50 c 0,-27.62 22.39,-50 50,-50 l 20,0 c 27.61,0 50,22.38 50,50 l 0,50 c 0,27.61 -22.39,50 -50,50 l -20,0 c -27.61,0 -50,-22.39 -50,-50"
           inkscape:connector-curvature="0" />
        <path
           id="path3155"
           style="fill:#000000;fill-opacity:1;fill-rule:nonzero;stroke:none"
           d="m 1198.75,2472.97 16.72,-5.31 c 0,0 -3.75,-14.07 -12.81,-20.86 0,0 -9.07,-6.8 -22.82,-6.8 0,0 -17.18,0 -28.2,11.64 0,0 -11.01,11.64 -11.01,31.95 0,0 0,21.41 11.09,33.29 0,0 11.09,11.87 29.22,11.87 0,0 15.78,0 25.62,-9.22 0,0 5.78,-5.62 8.75,-15.94 l -17.18,-4.06 c 0,0 -1.57,6.72 -6.41,10.55 0,0 -4.84,3.83 -11.72,3.83 0,0 -9.53,0 -15.47,-6.8 0,0 -5.94,-6.8 -5.94,-22.27 0,0 0,-16.25 5.86,-23.12 0,0 5.86,-6.88 15.24,-6.88 0,0 6.87,0 11.87,4.38 0,0 5,4.37 7.19,13.75"
           inkscape:connector-curvature="0" />
        <path
           id="path3157"
           style="fill:#ffffff;fill-opacity:1;fill-rule:nonzero;stroke:none"
           d="m 1395,2641.41 0,-50 c 0,-27.62 22.39,-50 50,-50 l 20,0 c 27.61,0 50,22.38 50,50 l 0,50 c 0,27.61 -22.39,50 -50,50 l -20,0 c -27.61,0 -50,-22.39 -50,-50"
           inkscape:connector-curvature="0" />
        <path
           id="path3161"
           style="fill:#ffffff;fill-opacity:1;fill-rule:nonzero;stroke:none"
           d="m 1705,2701.41 0,-50 c 0,-27.62 22.39,-50 50,-50 l 20,0 c 27.61,0 50,22.38 50,50 l 0,50 c 0,27.61 -22.39,50 -50,50 l -20,0 c -27.61,0 -50,-22.39 -50,-50"
           inkscape:connector-curvature="0" />
        <path
           id="path3165"
           style="fill:#ffffff;fill-opacity:1;fill-rule:nonzero;stroke:none"
           d="m 2005,2691.41 0,-50 c 0,-27.62 22.39,-50 50,-50 l 20,0 c 27.61,0 50,22.38 50,50 l 0,50 c 0,27.61 -22.39,50 -50,50 l -20,0 c -27.61,0 -50,-22.39 -50,-50"
           inkscape:connector-curvature="0" />
        <path
           id="path3169"
           style="fill:#ffffff;fill-opacity:1;fill-rule:nonzero;stroke:none"
           d="m 2285,2621.41 0,-50 c 0,-27.62 22.39,-50 50,-50 l 20,0 c 27.61,0 50,22.38 50,50 l 0,50 c 0,27.61 -22.39,50 -50,50 l -20,0 c -27.61,0 -50,-22.39 -50,-50"
           inkscape:connector-curvature="0" />
        <path
           id="path3171"
           style="fill:#000000;fill-opacity:1;fill-rule:nonzero;stroke:none"
           d="m 2353.75,2592.97 0,14.53 37.34,0 0,-34.22 c 0,0 -5.46,-5.31 -15.78,-9.3 0,0 -10.31,-3.98 -20.93,-3.98 0,0 -13.44,0 -23.52,5.63 0,0 -10.08,5.62 -15.08,16.17 0,0 -5,10.54 -5,22.89 0,0 0,13.44 5.63,23.83 0,0 5.62,10.39 16.4,16.01 0,0 8.28,4.22 20.63,4.22 0,0 15.94,0 24.92,-6.72 0,0 8.98,-6.72 11.64,-18.44 l -17.19,-3.28 c 0,0 -1.87,6.25 -6.87,9.92 0,0 -5,3.68 -12.5,3.68 0,0 -11.41,0 -18.13,-7.19 0,0 -6.72,-7.19 -6.72,-21.41 0,0 0,-15.31 6.8,-22.89 0,0 6.8,-7.58 17.89,-7.58 0,0 5.47,0 10.94,2.11 0,0 5.47,2.11 9.37,5.08 l 0,10.94 -19.84,0"
           inkscape:connector-curvature="0" />
        <path
           id="path3173"
           style="fill:#ffffff;fill-opacity:1;fill-rule:nonzero;stroke:none"
           d="m 2515,2451.41 0,-50 c 0,-27.62 22.39,-50 50,-50 l 20,0 c 27.61,0 50,22.38 50,50 l 0,50 c 0,27.61 -22.39,50 -50,50 l -20,0 c -27.61,0 -50,-22.39 -50,-50"
           inkscape:connector-curvature="0" />
        <path
           id="path3175"
           style="fill:#000000;fill-opacity:1;fill-rule:nonzero;stroke:none"
           d="m 2543.59,2477.34 17.35,0 0,-46.56 c 0,0 0,-11.09 0.62,-14.37 0,0 1.1,-5.32 5.32,-8.44 0,0 4.21,-3.13 11.56,-3.13 0,0 7.34,0 11.09,2.97 0,0 3.75,2.97 4.53,7.35 0,0 0.78,4.37 0.78,14.68 l 0,47.5 17.35,0 0,-45.15 c 0,0 0,-15.47 -1.41,-21.88 0,0 -1.4,-6.4 -5.23,-10.78 0,0 -3.83,-4.37 -10.16,-6.95 0,0 -6.33,-2.58 -16.48,-2.58 0,0 -12.35,0 -18.68,2.81 0,0 -6.32,2.82 -10,7.35 0,0 -3.67,4.53 -4.92,9.53 0,0 -1.72,7.34 -1.72,21.87 l 0,45.78"
           inkscape:connector-curvature="0" />
        <path
           id="path3181"
           style="fill:#ffffff;fill-opacity:1;fill-rule:nonzero;stroke:none"
           d="m 2655,2201.41 0,-50 c 0,-27.62 22.39,-50 50,-50 l 20,0 c 27.61,0 50,22.38 50,50 l 0,50 c 0,27.61 -22.39,50 -50,50 l -20,0 c -27.61,0 -50,-22.39 -50,-50"
           inkscape:connector-curvature="0" />
        <path
           id="path3183"
           style="fill:#000000;fill-opacity:1;fill-rule:nonzero;stroke:none"
           d="m 2723.75,2172.97 0,14.53 37.34,0 0,-34.22 c 0,0 -5.46,-5.31 -15.78,-9.3 0,0 -10.31,-3.98 -20.93,-3.98 0,0 -13.44,0 -23.52,5.63 0,0 -10.08,5.62 -15.08,16.17 0,0 -5,10.54 -5,22.89 0,0 0,13.44 5.63,23.83 0,0 5.62,10.39 16.4,16.01 0,0 8.28,4.22 20.63,4.22 0,0 15.94,0 24.92,-6.72 0,0 8.98,-6.72 11.64,-18.44 l -17.19,-3.28 c 0,0 -1.87,6.25 -6.87,9.92 0,0 -5,3.68 -12.5,3.68 0,0 -11.41,0 -18.13,-7.19 0,0 -6.72,-7.19 -6.72,-21.41 0,0 0,-15.31 6.8,-22.89 0,0 6.8,-7.58 17.89,-7.58 0,0 5.47,0 10.94,2.11 0,0 5.47,2.11 9.37,5.08 l 0,10.94 -19.84,0"
           inkscape:connector-curvature="0" />
        <path
           id="path3185"
           style="fill:#ffffff;fill-opacity:1;fill-rule:nonzero;stroke:none"
           d="m 2615,2031.41 0,-50 c 0,-27.62 22.39,-50 50,-50 l 20,0 c 27.61,0 50,22.38 50,50 l 0,50 c 0,27.61 -22.39,50 -50,50 l -20,0 c -27.61,0 -50,-22.39 -50,-50"
           inkscape:connector-curvature="0" />
        <path
           id="path3187"
           style="fill:#000000;fill-opacity:1;fill-rule:nonzero;stroke:none"
           d="m 2683.75,2002.97 0,14.53 37.34,0 0,-34.22 c 0,0 -5.46,-5.31 -15.78,-9.3 0,0 -10.31,-3.98 -20.93,-3.98 0,0 -13.44,0 -23.52,5.63 0,0 -10.08,5.62 -15.08,16.17 0,0 -5,10.54 -5,22.89 0,0 0,13.44 5.63,23.83 0,0 5.62,10.39 16.4,16.01 0,0 8.28,4.22 20.63,4.22 0,0 15.94,0 24.92,-6.72 0,0 8.98,-6.72 11.64,-18.44 l -17.19,-3.28 c 0,0 -1.87,6.25 -6.87,9.92 0,0 -5,3.68 -12.5,3.68 0,0 -11.41,0 -18.13,-7.19 0,0 -6.72,-7.19 -6.72,-21.41 0,0 0,-15.31 6.8,-22.89 0,0 6.8,-7.58 17.89,-7.58 0,0 5.47,0 10.94,2.11 0,0 5.47,2.11 9.37,5.08 l 0,10.94 -19.84,0"
           inkscape:connector-curvature="0" />
        <path
           id="path3189"
           style="fill:#ffffff;fill-opacity:1;fill-rule:nonzero;stroke:none"
           d="m 2425,2011.41 0,-50 c 0,-27.62 22.39,-50 50,-50 l 20,0 c 27.61,0 50,22.38 50,50 l 0,50 c 0,27.61 -22.39,50 -50,50 l -20,0 c -27.61,0 -50,-22.39 -50,-50"
           inkscape:connector-curvature="0" />
        <path
           id="path3191"
           style="fill:#000000;fill-opacity:1;fill-rule:nonzero;stroke:none"
           d="m 2508.75,1982.97 16.72,-5.31 c 0,0 -3.75,-14.07 -12.81,-20.86 0,0 -9.07,-6.8 -22.82,-6.8 0,0 -17.18,0 -28.2,11.64 0,0 -11.01,11.64 -11.01,31.95 0,0 0,21.41 11.09,33.29 0,0 11.09,11.87 29.22,11.87 0,0 15.78,0 25.62,-9.22 0,0 5.78,-5.62 8.75,-15.94 l -17.18,-4.06 c 0,0 -1.57,6.72 -6.41,10.55 0,0 -4.84,3.83 -11.72,3.83 0,0 -9.53,0 -15.47,-6.8 0,0 -5.94,-6.8 -5.94,-22.27 0,0 0,-16.25 5.86,-23.12 0,0 5.86,-6.88 15.24,-6.88 0,0 6.87,0 11.87,4.38 0,0 5,4.37 7.19,13.75"
           inkscape:connector-curvature="0" />
        <path
           id="path3193"
           style="fill:#ffffff;fill-opacity:1;fill-rule:nonzero;stroke:none"
           d="m 2245,2171.41 0,-50 c 0,-27.62 22.39,-50 50,-50 l 20,0 c 27.61,0 50,22.38 50,50 l 0,50 c 0,27.61 -22.39,50 -50,50 l -20,0 c -27.61,0 -50,-22.39 -50,-50"
           inkscape:connector-curvature="0" />
        <path
           id="path3197"
           style="fill:#ffffff;fill-opacity:1;fill-rule:nonzero;stroke:none"
           d="m 2045,2321.41 0,-50 c 0,-27.62 22.39,-50 50,-50 l 20,0 c 27.61,0 50,22.38 50,50 l 0,50 c 0,27.61 -22.39,50 -50,50 l -20,0 c -27.61,0 -50,-22.39 -50,-50"
           inkscape:connector-curvature="0" />
        <path
           id="path3201"
           style="fill:#ffffff;fill-opacity:1;fill-rule:nonzero;stroke:none"
           d="m 1815,2391.41 0,-50 c 0,-27.62 22.39,-50 50,-50 l 20,0 c 27.61,0 50,22.38 50,50 l 0,50 c 0,27.61 -22.39,50 -50,50 l -20,0 c -27.61,0 -50,-22.39 -50,-50"
           inkscape:connector-curvature="0" />
        <path
           id="path3205"
           style="fill:#ffffff;fill-opacity:1;fill-rule:nonzero;stroke:none"
           d="m 1575,2391.41 0,-50 c 0,-27.62 22.39,-50 50,-50 l 20,0 c 27.61,0 50,22.38 50,50 l 0,50 c 0,27.61 -22.39,50 -50,50 l -20,0 c -27.61,0 -50,-22.39 -50,-50"
           inkscape:connector-curvature="0" />
        <path
           id="path3209"
           style="fill:#ffffff;fill-opacity:1;fill-rule:nonzero;stroke:none"
           d="m 1355,2321.41 0,-50 c 0,-27.62 22.39,-50 50,-50 l 20,0 c 27.61,0 50,22.38 50,50 l 0,50 c 0,27.61 -22.39,50 -50,50 l -20,0 c -27.61,0 -50,-22.39 -50,-50"
           inkscape:connector-curvature="0" />
        <path
           id="path3213"
           style="fill:#ffffff;fill-opacity:1;fill-rule:nonzero;stroke:none"
           d="m 1185,2191.41 0,-50 c 0,-27.62 22.39,-50 50,-50 l 20,0 c 27.61,0 50,22.38 50,50 l 0,50 c 0,27.61 -22.39,50 -50,50 l -20,0 c -27.61,0 -50,-22.39 -50,-50"
           inkscape:connector-curvature="0" />
        <path
           id="path3215"
           style="fill:#000000;fill-opacity:1;fill-rule:nonzero;stroke:none"
           d="m 1268.75,2162.97 16.72,-5.31 c 0,0 -3.75,-14.07 -12.81,-20.86 0,0 -9.07,-6.8 -22.82,-6.8 0,0 -17.18,0 -28.2,11.64 0,0 -11.01,11.64 -11.01,31.95 0,0 0,21.41 11.09,33.29 0,0 11.09,11.87 29.22,11.87 0,0 15.78,0 25.62,-9.22 0,0 5.78,-5.62 8.75,-15.94 l -17.18,-4.06 c 0,0 -1.57,6.72 -6.41,10.55 0,0 -4.84,3.83 -11.72,3.83 0,0 -9.53,0 -15.47,-6.8 0,0 -5.94,-6.8 -5.94,-22.27 0,0 0,-16.25 5.86,-23.12 0,0 5.86,-6.88 15.24,-6.88 0,0 6.87,0 11.87,4.38 0,0 5,4.37 7.19,13.75"
           inkscape:connector-curvature="0" />
        <path
           id="path3217"
           style="fill:#ffffff;fill-opacity:1;fill-rule:nonzero;stroke:none"
           d="m 1085,2001.41 0,-50 c 0,-27.62 22.39,-50 50,-50 l 20,0 c 27.61,0 50,22.38 50,50 l 0,50 c 0,27.61 -22.39,50 -50,50 l -20,0 c -27.61,0 -50,-22.39 -50,-50"
           inkscape:connector-curvature="0" />
        <path
           id="path3219"
           style="fill:#000000;fill-opacity:1;fill-rule:nonzero;stroke:none"
           d="m 1168.75,1972.97 16.72,-5.31 c 0,0 -3.75,-14.07 -12.81,-20.86 0,0 -9.07,-6.8 -22.82,-6.8 0,0 -17.18,0 -28.2,11.64 0,0 -11.01,11.64 -11.01,31.95 0,0 0,21.41 11.09,33.29 0,0 11.09,11.87 29.22,11.87 0,0 15.78,0 25.62,-9.22 0,0 5.78,-5.62 8.75,-15.94 l -17.18,-4.06 c 0,0 -1.57,6.72 -6.41,10.55 0,0 -4.84,3.83 -11.72,3.83 0,0 -9.53,0 -15.47,-6.8 0,0 -5.94,-6.8 -5.94,-22.27 0,0 0,-16.25 5.86,-23.12 0,0 5.86,-6.88 15.24,-6.88 0,0 6.87,0 11.87,4.38 0,0 5,4.37 7.19,13.75"
           inkscape:connector-curvature="0" />
        <path
           id="path3221"
           style="fill:#ffffff;fill-opacity:1;fill-rule:nonzero;stroke:none"
           d="m 1125,1801.41 0,-50 c 0,-27.62 22.39,-50 50,-50 l 20,0 c 27.61,0 50,22.38 50,50 l 0,50 c 0,27.61 -22.39,50 -50,50 l -20,0 c -27.61,0 -50,-22.39 -50,-50"
           inkscape:connector-curvature="0" />
        <path
           id="path3223"
           style="fill:#000000;fill-opacity:1;fill-rule:nonzero;stroke:none"
           d="m 1153.59,1827.34 17.35,0 0,-46.56 c 0,0 0,-11.09 0.62,-14.37 0,0 1.1,-5.32 5.32,-8.44 0,0 4.21,-3.13 11.56,-3.13 0,0 7.34,0 11.09,2.97 0,0 3.75,2.97 4.53,7.35 0,0 0.78,4.37 0.78,14.68 l 0,47.5 17.35,0 0,-45.15 c 0,0 0,-15.47 -1.41,-21.88 0,0 -1.4,-6.4 -5.23,-10.78 0,0 -3.83,-4.37 -10.16,-6.95 0,0 -6.33,-2.58 -16.48,-2.58 0,0 -12.35,0 -18.68,2.81 0,0 -6.32,2.82 -10,7.35 0,0 -3.67,4.53 -4.92,9.53 0,0 -1.72,7.34 -1.72,21.87 l 0,45.78"
           inkscape:connector-curvature="0" />
        <path
           id="path3225"
           style="fill:#ffffff;fill-opacity:1;fill-rule:nonzero;stroke:none"
           d="m 1195,1621.41 0,-50 c 0,-27.62 22.39,-50 50,-50 l 20,0 c 27.61,0 50,22.38 50,50 l 0,50 c 0,27.61 -22.39,50 -50,50 l -20,0 c -27.61,0 -50,-22.39 -50,-50"
           inkscape:connector-curvature="0" />
        <path
           id="path3227"
           style="fill:#000000;fill-opacity:1;fill-rule:nonzero;stroke:none"
           d="m 1263.75,1592.97 0,14.53 37.34,0 0,-34.22 c 0,0 -5.46,-5.31 -15.78,-9.3 0,0 -10.31,-3.98 -20.93,-3.98 0,0 -13.44,0 -23.52,5.63 0,0 -10.08,5.62 -15.08,16.17 0,0 -5,10.54 -5,22.89 0,0 0,13.44 5.63,23.83 0,0 5.62,10.39 16.4,16.01 0,0 8.28,4.22 20.63,4.22 0,0 15.94,0 24.92,-6.72 0,0 8.98,-6.72 11.64,-18.44 l -17.19,-3.28 c 0,0 -1.87,6.25 -6.87,9.92 0,0 -5,3.68 -12.5,3.68 0,0 -11.41,0 -18.13,-7.19 0,0 -6.72,-7.19 -6.72,-21.41 0,0 0,-15.31 6.8,-22.89 0,0 6.8,-7.58 17.89,-7.58 0,0 5.47,0 10.94,2.11 0,0 5.47,2.11 9.37,5.08 l 0,10.94 -19.84,0"
           inkscape:connector-curvature="0" />
        <path
           id="path3229"
           style="fill:#ffffff;fill-opacity:1;fill-rule:nonzero;stroke:none"
           d="m 1275,1441.41 0,-50 c 0,-27.62 22.39,-50 50,-50 l 20,0 c 27.61,0 50,22.38 50,50 l 0,50 c 0,27.61 -22.39,50 -50,50 l -20,0 c -27.61,0 -50,-22.39 -50,-50"
           inkscape:connector-curvature="0" />
        <path
           id="path3231"
           style="fill:#000000;fill-opacity:1;fill-rule:nonzero;stroke:none"
           d="m 1303.59,1467.34 17.35,0 0,-46.56 c 0,0 0,-11.09 0.62,-14.37 0,0 1.1,-5.32 5.32,-8.44 0,0 4.21,-3.13 11.56,-3.13 0,0 7.34,0 11.09,2.97 0,0 3.75,2.97 4.53,7.35 0,0 0.78,4.37 0.78,14.68 l 0,47.5 17.35,0 0,-45.15 c 0,0 0,-15.47 -1.41,-21.88 0,0 -1.4,-6.4 -5.23,-10.78 0,0 -3.83,-4.37 -10.16,-6.95 0,0 -6.33,-2.58 -16.48,-2.58 0,0 -12.35,0 -18.68,2.81 0,0 -6.32,2.82 -10,7.35 0,0 -3.67,4.53 -4.92,9.53 0,0 -1.72,7.34 -1.72,21.87 l 0,45.78"
           inkscape:connector-curvature="0" />
        <path
           id="path3233"
           style="fill:#ffffff;fill-opacity:1;fill-rule:nonzero;stroke:none"
           d="m 1365,1261.41 0,-50 c 0,-27.62 22.39,-50 50,-50 l 20,0 c 27.61,0 50,22.38 50,50 l 0,50 c 0,27.61 -22.39,50 -50,50 l -20,0 c -27.61,0 -50,-22.39 -50,-50"
           inkscape:connector-curvature="0" />
        <path
           id="path3235"
           style="fill:#000000;fill-opacity:1;fill-rule:nonzero;stroke:none"
           d="m 1471.25,1201.41 -18.91,0 -7.5,19.53 -34.37,0 -7.03,-19.53 -18.44,0 33.44,85.93 18.44,0 34.37,-85.93 z m -32.03,34.06 -11.72,31.87 -11.72,-31.87 23.44,0"
           inkscape:connector-curvature="0" />
        <path
           id="path3237"
           style="fill:#ffffff;fill-opacity:1;fill-rule:nonzero;stroke:none"
           d="m 1455,1091.41 0,-50 c 0,-27.62 22.39,-50.004 50,-50.004 l 20,0 c 27.61,0 50,22.384 50,50.004 l 0,50 c 0,27.61 -22.39,50 -50,50 l -20,0 c -27.61,0 -50,-22.39 -50,-50"
           inkscape:connector-curvature="0" />
        <path
           id="path3239"
           style="fill:#000000;fill-opacity:1;fill-rule:nonzero;stroke:none"
           d="m 1523.75,1062.97 0,14.53 37.34,0 0,-34.22 c 0,0 -5.46,-5.31 -15.78,-9.3 0,0 -10.31,-3.98 -20.93,-3.98 0,0 -13.44,0 -23.52,5.63 0,0 -10.08,5.62 -15.08,16.17 0,0 -5,10.54 -5,22.89 0,0 0,13.44 5.63,23.83 0,0 5.62,10.39 16.4,16.01 0,0 8.28,4.22 20.63,4.22 0,0 15.94,0 24.92,-6.72 0,0 8.98,-6.72 11.64,-18.44 l -17.19,-3.28 c 0,0 -1.87,6.25 -6.87,9.92 0,0 -5,3.68 -12.5,3.68 0,0 -11.41,0 -18.13,-7.19 0,0 -6.72,-7.19 -6.72,-21.41 0,0 0,-15.31 6.8,-22.89 0,0 6.8,-7.58 17.89,-7.58 0,0 5.47,0 10.94,2.11 0,0 5.47,2.11 9.37,5.08 l 0,10.94 -19.84,0"
           inkscape:connector-curvature="0" />
        <path
           id="path3241"
           style="fill:#ffffff;fill-opacity:1;fill-rule:nonzero;stroke:none"
           d="m 1555,921.406 0,-50 c 0,-27.613 22.39,-50 50,-50 l 20,0 c 27.61,0 50,22.387 50,50 l 0,50 c 0,27.614 -22.39,50 -50,50 l -20,0 c -27.61,0 -50,-22.386 -50,-50"
           inkscape:connector-curvature="0" />
        <path
           id="path3243"
           style="fill:#000000;fill-opacity:1;fill-rule:nonzero;stroke:none"
           d="m 1583.59,947.344 17.35,0 0,-46.563 c 0,0 0,-11.093 0.62,-14.375 0,0 1.1,-5.312 5.32,-8.437 0,0 4.21,-3.125 11.56,-3.125 0,0 7.34,0 11.09,2.969 0,0 3.75,2.968 4.53,7.343 0,0 0.78,4.375 0.78,14.688 l 0,47.5 17.35,0 0,-45.156 c 0,0 0,-15.469 -1.41,-21.875 0,0 -1.4,-6.407 -5.23,-10.782 0,0 -3.83,-4.375 -10.16,-6.953 0,0 -6.33,-2.578 -16.48,-2.578 0,0 -12.35,0 -18.68,2.813 0,0 -6.32,2.812 -10,7.343 0,0 -3.67,4.532 -4.92,9.532 0,0 -1.72,7.343 -1.72,21.875 l 0,45.781"
           inkscape:connector-curvature="0" />
        <path
           id="path3245"
           style="fill:#ffffff;fill-opacity:1;fill-rule:nonzero;stroke:none"
           d="m 1745,861.406 0,-50 c 0,-27.613 22.39,-50 50,-50 l 20,0 c 27.61,0 50,22.387 50,50 l 0,50 c 0,27.614 -22.39,50 -50,50 l -20,0 c -27.61,0 -50,-22.386 -50,-50"
           inkscape:connector-curvature="0" />
        <path
           id="path3247"
           style="fill:#000000;fill-opacity:1;fill-rule:nonzero;stroke:none"
           d="m 1828.75,832.969 16.72,-5.313 c 0,0 -3.75,-14.062 -12.81,-20.859 0,0 -9.07,-6.797 -22.82,-6.797 0,0 -17.18,0 -28.2,11.641 0,0 -11.01,11.64 -11.01,31.953 0,0 0,21.406 11.09,33.281 0,0 11.09,11.875 29.22,11.875 0,0 15.78,0 25.62,-9.219 0,0 5.78,-5.625 8.75,-15.937 l -17.18,-4.063 c 0,0 -1.57,6.719 -6.41,10.547 0,0 -4.84,3.828 -11.72,3.828 0,0 -9.53,0 -15.47,-6.797 0,0 -5.94,-6.796 -5.94,-22.265 0,0 0,-16.25 5.86,-23.125 0,0 5.86,-6.875 15.24,-6.875 0,0 6.87,0 11.87,4.375 0,0 5,4.375 7.19,13.75"
           inkscape:connector-curvature="0" />
        <path
           id="path3249"
           style="fill:#ffffff;fill-opacity:1;fill-rule:nonzero;stroke:none"
           d="m 1965,901.406 0,-50 c 0,-27.613 22.39,-50 50,-50 l 20,0 c 27.61,0 50,22.387 50,50 l 0,50 c 0,27.614 -22.39,50 -50,50 l -20,0 c -27.61,0 -50,-22.386 -50,-50"
           inkscape:connector-curvature="0" />
        <path
           id="path3251"
           style="fill:#000000;fill-opacity:1;fill-rule:nonzero;stroke:none"
           d="m 2048.75,872.969 16.72,-5.313 c 0,0 -3.75,-14.062 -12.81,-20.859 0,0 -9.07,-6.797 -22.82,-6.797 0,0 -17.18,0 -28.2,11.641 0,0 -11.01,11.64 -11.01,31.953 0,0 0,21.406 11.09,33.281 0,0 11.09,11.875 29.22,11.875 0,0 15.78,0 25.62,-9.219 0,0 5.78,-5.625 8.75,-15.937 l -17.18,-4.063 c 0,0 -1.57,6.719 -6.41,10.547 0,0 -4.84,3.828 -11.72,3.828 0,0 -9.53,0 -15.47,-6.797 0,0 -5.94,-6.796 -5.94,-22.265 0,0 0,-16.25 5.86,-23.125 0,0 5.86,-6.875 15.24,-6.875 0,0 6.87,0 11.87,4.375 0,0 5,4.375 7.19,13.75"
           inkscape:connector-curvature="0" />
        <path
           id="path3253"
           style="fill:#ffffff;fill-opacity:1;fill-rule:nonzero;stroke:none"
           d="m 2175,1031.41 0,-50.004 c 0,-27.613 22.39,-50 50,-50 l 20,0 c 27.61,0 50,22.387 50,50 l 0,50.004 c 0,27.61 -22.39,50 -50,50 l -20,0 c -27.61,0 -50,-22.39 -50,-50"
           inkscape:connector-curvature="0" />
        <path
           id="path3255"
           style="fill:#000000;fill-opacity:1;fill-rule:nonzero;stroke:none"
           d="m 2258.75,1002.97 16.72,-5.314 c 0,0 -3.75,-14.062 -12.81,-20.859 0,0 -9.07,-6.797 -22.82,-6.797 0,0 -17.18,0 -28.2,11.641 0,0 -11.01,11.64 -11.01,31.949 0,0 0,21.41 11.09,33.29 0,0 11.09,11.87 29.22,11.87 0,0 15.78,0 25.62,-9.22 0,0 5.78,-5.62 8.75,-15.94 l -17.18,-4.06 c 0,0 -1.57,6.72 -6.41,10.55 0,0 -4.84,3.83 -11.72,3.83 0,0 -9.53,0 -15.47,-6.8 0,0 -5.94,-6.8 -5.94,-22.27 0,0 0,-16.246 5.86,-23.121 0,0 5.86,-6.875 15.24,-6.875 0,0 6.87,0 11.87,4.375 0,0 5,4.375 7.19,13.751"
           inkscape:connector-curvature="0" />
        <path
           id="path3257"
           style="fill:#ffffff;fill-opacity:1;fill-rule:nonzero;stroke:none"
           d="m 2335,1241.41 0,-50 c 0,-27.62 22.39,-50 50,-50 l 20,0 c 27.61,0 50,22.38 50,50 l 0,50 c 0,27.61 -22.39,50 -50,50 l -20,0 c -27.61,0 -50,-22.39 -50,-50"
           inkscape:connector-curvature="0" />
        <path
           id="path3259"
           style="fill:#000000;fill-opacity:1;fill-rule:nonzero;stroke:none"
           d="m 2441.25,1181.41 -18.91,0 -7.5,19.53 -34.37,0 -7.03,-19.53 -18.44,0 33.44,85.93 18.44,0 34.37,-85.93 z m -32.03,34.06 -11.72,31.87 -11.72,-31.87 23.44,0"
           inkscape:connector-curvature="0" />
        <path
           id="path3261"
           style="fill:#ffffff;fill-opacity:1;fill-rule:nonzero;stroke:none"
           d="m 2485,1461.41 0,-50 c 0,-27.62 22.39,-50 50,-50 l 20,0 c 27.61,0 50,22.38 50,50 l 0,50 c 0,27.61 -22.39,50 -50,50 l -20,0 c -27.61,0 -50,-22.39 -50,-50"
           inkscape:connector-curvature="0" />
        <path
           id="path3263"
           style="fill:#000000;fill-opacity:1;fill-rule:nonzero;stroke:none"
           d="m 2553.75,1432.97 0,14.53 37.34,0 0,-34.22 c 0,0 -5.46,-5.31 -15.78,-9.3 0,0 -10.31,-3.98 -20.93,-3.98 0,0 -13.44,0 -23.52,5.63 0,0 -10.08,5.62 -15.08,16.17 0,0 -5,10.54 -5,22.89 0,0 0,13.44 5.63,23.83 0,0 5.62,10.39 16.4,16.01 0,0 8.28,4.22 20.63,4.22 0,0 15.94,0 24.92,-6.72 0,0 8.98,-6.72 11.64,-18.44 l -17.19,-3.28 c 0,0 -1.87,6.25 -6.87,9.92 0,0 -5,3.68 -12.5,3.68 0,0 -11.41,0 -18.13,-7.19 0,0 -6.72,-7.19 -6.72,-21.41 0,0 0,-15.31 6.8,-22.89 0,0 6.8,-7.58 17.89,-7.58 0,0 5.47,0 10.94,2.11 0,0 5.47,2.11 9.37,5.08 l 0,10.94 -19.84,0"
           inkscape:connector-curvature="0" />
        <path
           id="path3265"
           style="fill:#ffffff;fill-opacity:1;fill-rule:nonzero;stroke:none"
           d="m 2675,1561.41 0,-50 c 0,-27.62 22.39,-50 50,-50 l 20,0 c 27.61,0 50,22.38 50,50 l 0,50 c 0,27.61 -22.39,50 -50,50 l -20,0 c -27.61,0 -50,-22.39 -50,-50"
           inkscape:connector-curvature="0" />
        <path
           id="path3267"
           style="fill:#000000;fill-opacity:1;fill-rule:nonzero;stroke:none"
           d="m 2758.75,1532.97 16.72,-5.31 c 0,0 -3.75,-14.07 -12.81,-20.86 0,0 -9.07,-6.8 -22.82,-6.8 0,0 -17.18,0 -28.2,11.64 0,0 -11.01,11.64 -11.01,31.95 0,0 0,21.41 11.09,33.29 0,0 11.09,11.87 29.22,11.87 0,0 15.78,0 25.62,-9.22 0,0 5.78,-5.62 8.75,-15.94 l -17.18,-4.06 c 0,0 -1.57,6.72 -6.41,10.55 0,0 -4.84,3.83 -11.72,3.83 0,0 -9.53,0 -15.47,-6.8 0,0 -5.94,-6.8 -5.94,-22.27 0,0 0,-16.25 5.86,-23.12 0,0 5.86,-6.88 15.24,-6.88 0,0 6.87,0 11.87,4.38 0,0 5,4.37 7.19,13.75"
           inkscape:connector-curvature="0" />
        <path
           id="path3269"
           style="fill:#ffffff;fill-opacity:1;fill-rule:nonzero;stroke:none"
           d="m 2845,1481.41 0,-50 c 0,-27.62 22.39,-50 50,-50 l 20,0 c 27.61,0 50,22.38 50,50 l 0,50 c 0,27.61 -22.39,50 -50,50 l -20,0 c -27.61,0 -50,-22.39 -50,-50"
           inkscape:connector-curvature="0" />
        <path
           id="path3271"
           style="fill:#000000;fill-opacity:1;fill-rule:nonzero;stroke:none"
           d="m 2873.59,1507.34 17.35,0 0,-46.56 c 0,0 0,-11.09 0.62,-14.37 0,0 1.1,-5.32 5.32,-8.44 0,0 4.21,-3.13 11.56,-3.13 0,0 7.34,0 11.09,2.97 0,0 3.75,2.97 4.53,7.35 0,0 0.78,4.37 0.78,14.68 l 0,47.5 17.35,0 0,-45.15 c 0,0 0,-15.47 -1.41,-21.88 0,0 -1.4,-6.4 -5.23,-10.78 0,0 -3.83,-4.37 -10.16,-6.95 0,0 -6.33,-2.58 -16.48,-2.58 0,0 -12.35,0 -18.68,2.81 0,0 -6.32,2.82 -10,7.35 0,0 -3.67,4.53 -4.92,9.53 0,0 -1.72,7.34 -1.72,21.87 l 0,45.78"
           inkscape:connector-curvature="0" />
        <path
           id="path3273"
           style="fill:#ffffff;fill-opacity:1;fill-rule:nonzero;stroke:none"
           d="m 2895,1211.41 0,-50 c 0,-27.62 22.39,-50 50,-50 l 20,0 c 27.61,0 50,22.38 50,50 l 0,50 c 0,27.61 -22.39,50 -50,50 l -20,0 c -27.61,0 -50,-22.39 -50,-50"
           inkscape:connector-curvature="0" />
        <path
           id="path3275"
           style="fill:#000000;fill-opacity:1;fill-rule:nonzero;stroke:none"
           d="m 3001.25,1151.41 -18.91,0 -7.5,19.53 -34.37,0 -7.03,-19.53 -18.44,0 33.44,85.93 18.44,0 34.37,-85.93 z m -32.03,34.06 -11.72,31.87 -11.72,-31.87 23.44,0"
           inkscape:connector-curvature="0" />
        <path
           id="path3281"
           style="fill:#ffffff;fill-opacity:1;fill-rule:nonzero;stroke:none"
           d="m 2825,941.406 0,-50 c 0,-27.613 22.39,-50 50,-50 l 20,0 c 27.61,0 50,22.387 50,50 l 0,50 c 0,27.614 -22.39,50 -50,50 l -20,0 c -27.61,0 -50,-22.386 -50,-50"
           inkscape:connector-curvature="0" />
        <path
           id="path3283"
           style="fill:#000000;fill-opacity:1;fill-rule:nonzero;stroke:none"
           d="m 2908.75,912.969 16.72,-5.313 c 0,0 -3.75,-14.062 -12.81,-20.859 0,0 -9.07,-6.797 -22.82,-6.797 0,0 -17.18,0 -28.2,11.641 0,0 -11.01,11.64 -11.01,31.953 0,0 0,21.406 11.09,33.281 0,0 11.09,11.875 29.22,11.875 0,0 15.78,0 25.62,-9.219 0,0 5.78,-5.625 8.75,-15.937 l -17.18,-4.063 c 0,0 -1.57,6.719 -6.41,10.547 0,0 -4.84,3.828 -11.72,3.828 0,0 -9.53,0 -15.47,-6.797 0,0 -5.94,-6.796 -5.94,-22.265 0,0 0,-16.25 5.86,-23.125 0,0 5.86,-6.875 15.24,-6.875 0,0 6.87,0 11.87,4.375 0,0 5,4.375 7.19,13.75"
           inkscape:connector-curvature="0" />
        <path
           id="path3285"
           style="fill:#ffffff;fill-opacity:1;fill-rule:nonzero;stroke:none"
           d="m 2675,731.406 0,-50 c 0,-27.613 22.39,-50 50,-50 l 20,0 c 27.61,0 50,22.387 50,50 l 0,50 c 0,27.614 -22.39,50 -50,50 l -20,0 c -27.61,0 -50,-22.386 -50,-50"
           inkscape:connector-curvature="0" />
        <path
           id="path3287"
           style="fill:#000000;fill-opacity:1;fill-rule:nonzero;stroke:none"
           d="m 2703.59,757.344 17.35,0 0,-46.563 c 0,0 0,-11.093 0.62,-14.375 0,0 1.1,-5.312 5.32,-8.437 0,0 4.21,-3.125 11.56,-3.125 0,0 7.34,0 11.09,2.969 0,0 3.75,2.968 4.53,7.343 0,0 0.78,4.375 0.78,14.688 l 0,47.5 17.35,0 0,-45.156 c 0,0 0,-15.469 -1.41,-21.875 0,0 -1.4,-6.407 -5.23,-10.782 0,0 -3.83,-4.375 -10.16,-6.953 0,0 -6.33,-2.578 -16.48,-2.578 0,0 -12.35,0 -18.68,2.813 0,0 -6.32,2.812 -10,7.343 0,0 -3.67,4.532 -4.92,9.532 0,0 -1.72,7.343 -1.72,21.875 l 0,45.781"
           inkscape:connector-curvature="0" />
        <path
           id="path3289"
           style="fill:#ffffff;fill-opacity:1;fill-rule:nonzero;stroke:none"
           d="m 2435,591.406 0,-50 c 0,-27.613 22.39,-50 50,-50 l 20,0 c 27.61,0 50,22.387 50,50 l 0,50 c 0,27.614 -22.39,50 -50,50 l -20,0 c -27.61,0 -50,-22.386 -50,-50"
           inkscape:connector-curvature="0" />
        <path
           id="path3291"
           style="fill:#000000;fill-opacity:1;fill-rule:nonzero;stroke:none"
           d="m 2518.75,562.969 16.72,-5.313 c 0,0 -3.75,-14.062 -12.81,-20.859 0,0 -9.07,-6.797 -22.82,-6.797 0,0 -17.18,0 -28.2,11.641 0,0 -11.01,11.64 -11.01,31.953 0,0 0,21.406 11.09,33.281 0,0 11.09,11.875 29.22,11.875 0,0 15.78,0 25.62,-9.219 0,0 5.78,-5.625 8.75,-15.937 l -17.18,-4.063 c 0,0 -1.57,6.719 -6.41,10.547 0,0 -4.84,3.828 -11.72,3.828 0,0 -9.53,0 -15.47,-6.797 0,0 -5.94,-6.796 -5.94,-22.265 0,0 0,-16.25 5.86,-23.125 0,0 5.86,-6.875 15.24,-6.875 0,0 6.87,0 11.87,4.375 0,0 5,4.375 7.19,13.75"
           inkscape:connector-curvature="0" />
        <path
           id="path3293"
           style="fill:#ffffff;fill-opacity:1;fill-rule:nonzero;stroke:none"
           d="m 2155,551.406 0,-50 c 0,-27.613 22.39,-50 50,-50 l 20,0 c 27.61,0 50,22.387 50,50 l 0,50 c 0,27.614 -22.39,50 -50,50 l -20,0 c -27.61,0 -50,-22.386 -50,-50"
           inkscape:connector-curvature="0" />
        <path
           id="path3295"
           style="fill:#000000;fill-opacity:1;fill-rule:nonzero;stroke:none"
           d="m 2223.75,522.969 0,14.531 37.34,0 0,-34.219 c 0,0 -5.46,-5.312 -15.78,-9.297 0,0 -10.31,-3.984 -20.93,-3.984 0,0 -13.44,0 -23.52,5.625 0,0 -10.08,5.625 -15.08,16.172 0,0 -5,10.547 -5,22.891 0,0 0,13.437 5.63,23.828 0,0 5.62,10.39 16.4,16.015 0,0 8.28,4.219 20.63,4.219 0,0 15.94,0 24.92,-6.719 0,0 8.98,-6.718 11.64,-18.437 l -17.19,-3.281 c 0,0 -1.87,6.25 -6.87,9.921 0,0 -5,3.672 -12.5,3.672 0,0 -11.41,0 -18.13,-7.187 0,0 -6.72,-7.188 -6.72,-21.406 0,0 0,-15.313 6.8,-22.891 0,0 6.8,-7.578 17.89,-7.578 0,0 5.47,0 10.94,2.109 0,0 5.47,2.11 9.37,5.078 l 0,10.938 -19.84,0"
           inkscape:connector-curvature="0" />
        <path
           id="path3297"
           style="fill:#ffffff;fill-opacity:1;fill-rule:nonzero;stroke:none"
           d="m 1865,521.406 0,-50 c 0,-27.613 22.39,-50 50,-50 l 20,0 c 27.61,0 50,22.387 50,50 l 0,50 c 0,27.614 -22.39,50 -50,50 l -20,0 c -27.61,0 -50,-22.386 -50,-50"
           inkscape:connector-curvature="0" />
        <path
           id="path3299"
           style="fill:#000000;fill-opacity:1;fill-rule:nonzero;stroke:none"
           d="m 1933.75,492.969 0,14.531 37.34,0 0,-34.219 c 0,0 -5.46,-5.312 -15.78,-9.297 0,0 -10.31,-3.984 -20.93,-3.984 0,0 -13.44,0 -23.52,5.625 0,0 -10.08,5.625 -15.08,16.172 0,0 -5,10.547 -5,22.891 0,0 0,13.437 5.63,23.828 0,0 5.62,10.39 16.4,16.015 0,0 8.28,4.219 20.63,4.219 0,0 15.94,0 24.92,-6.719 0,0 8.98,-6.718 11.64,-18.437 l -17.19,-3.281 c 0,0 -1.87,6.25 -6.87,9.921 0,0 -5,3.672 -12.5,3.672 0,0 -11.41,0 -18.13,-7.187 0,0 -6.72,-7.188 -6.72,-21.406 0,0 0,-15.313 6.8,-22.891 0,0 6.8,-7.578 17.89,-7.578 0,0 5.47,0 10.94,2.109 0,0 5.47,2.11 9.37,5.078 l 0,10.938 -19.84,0"
           inkscape:connector-curvature="0" />
        <path
           id="path3301"
           style="fill:#ffffff;fill-opacity:1;fill-rule:nonzero;stroke:none"
           d="m 1555,551.406 0,-50 c 0,-27.613 22.39,-50 50,-50 l 20,0 c 27.61,0 50,22.387 50,50 l 0,50 c 0,27.614 -22.39,50 -50,50 l -20,0 c -27.61,0 -50,-22.386 -50,-50"
           inkscape:connector-curvature="0" />
        <path
           id="path3303"
           style="fill:#000000;fill-opacity:1;fill-rule:nonzero;stroke:none"
           d="m 1623.75,522.969 0,14.531 37.34,0 0,-34.219 c 0,0 -5.46,-5.312 -15.78,-9.297 0,0 -10.31,-3.984 -20.93,-3.984 0,0 -13.44,0 -23.52,5.625 0,0 -10.08,5.625 -15.08,16.172 0,0 -5,10.547 -5,22.891 0,0 0,13.437 5.63,23.828 0,0 5.62,10.39 16.4,16.015 0,0 8.28,4.219 20.63,4.219 0,0 15.94,0 24.92,-6.719 0,0 8.98,-6.718 11.64,-18.437 l -17.19,-3.281 c 0,0 -1.87,6.25 -6.87,9.921 0,0 -5,3.672 -12.5,3.672 0,0 -11.41,0 -18.13,-7.187 0,0 -6.72,-7.188 -6.72,-21.406 0,0 0,-15.313 6.8,-22.891 0,0 6.8,-7.578 17.89,-7.578 0,0 5.47,0 10.94,2.109 0,0 5.47,2.11 9.37,5.078 l 0,10.938 -19.84,0"
           inkscape:connector-curvature="0" />
        <path
           id="path3305"
           style="fill:#ffffff;fill-opacity:1;fill-rule:nonzero;stroke:none"
           d="m 1245,621.406 0,-50 c 0,-27.613 22.39,-50 50,-50 l 20,0 c 27.61,0 50,22.387 50,50 l 0,50 c 0,27.614 -22.39,50 -50,50 l -20,0 c -27.61,0 -50,-22.386 -50,-50"
           inkscape:connector-curvature="0" />
        <path
           id="path3307"
           style="fill:#000000;fill-opacity:1;fill-rule:nonzero;stroke:none"
           d="m 1351.25,561.406 -18.91,0 -7.5,19.532 -34.37,0 -7.03,-19.532 -18.44,0 33.44,85.938 18.44,0 34.37,-85.938 z m -32.03,34.063 -11.72,31.875 -11.72,-31.875 23.44,0"
           inkscape:connector-curvature="0" />
        <path
           id="path3309"
           style="fill:#ffffff;fill-opacity:1;fill-rule:nonzero;stroke:none"
           d="m 925,721.406 0,-50 c 0,-27.613 22.387,-50 50,-50 l 20,0 c 27.61,0 50,22.387 50,50 l 0,50 c 0,27.614 -22.39,50 -50,50 l -20,0 c -27.613,0 -50,-22.386 -50,-50"
           inkscape:connector-curvature="0" />
        <path
           id="path3311"
           style="fill:#000000;fill-opacity:1;fill-rule:nonzero;stroke:none"
           d="m 993.75,692.969 0,14.531 37.34,0 0,-34.219 c 0,0 -5.46,-5.312 -15.78,-9.297 0,0 -10.31,-3.984 -20.935,-3.984 0,0 -13.437,0 -23.516,5.625 0,0 -10.078,5.625 -15.078,16.172 0,0 -5,10.547 -5,22.891 0,0 0,13.437 5.625,23.828 0,0 5.625,10.39 16.407,16.015 0,0 8.281,4.219 20.625,4.219 0,0 15.942,0 24.922,-6.719 0,0 8.98,-6.718 11.64,-18.437 l -17.19,-3.281 c 0,0 -1.87,6.25 -6.87,9.921 0,0 -5,3.672 -12.502,3.672 0,0 -11.407,0 -18.125,-7.187 0,0 -6.719,-7.188 -6.719,-21.406 0,0 0,-15.313 6.797,-22.891 0,0 6.797,-7.578 17.89,-7.578 0,0 5.469,0 10.939,2.109 0,0 5.47,2.11 9.37,5.078 l 0,10.938 -19.84,0"
           inkscape:connector-curvature="0" />
        <path
           id="path3313"
           style="fill:#ffffff;fill-opacity:1;fill-rule:nonzero;stroke:none"
           d="m 665,691.406 0,-50 c 0,-27.613 22.387,-50 50,-50 l 20,0 c 27.613,0 50,22.387 50,50 l 0,50 c 0,27.614 -22.387,50 -50,50 l -20,0 c -27.613,0 -50,-22.386 -50,-50"
           inkscape:connector-curvature="0" />
        <path
           id="path3315"
           style="fill:#000000;fill-opacity:1;fill-rule:nonzero;stroke:none"
           d="m 733.75,662.969 0,14.531 37.344,0 0,-34.219 c 0,0 -5.469,-5.312 -15.781,-9.297 0,0 -10.313,-3.984 -20.938,-3.984 0,0 -13.437,0 -23.516,5.625 0,0 -10.078,5.625 -15.078,16.172 0,0 -5,10.547 -5,22.891 0,0 0,13.437 5.625,23.828 0,0 5.625,10.39 16.407,16.015 0,0 8.281,4.219 20.625,4.219 0,0 15.937,0 24.921,-6.719 0,0 8.985,-6.718 11.641,-18.437 l -17.187,-3.281 c 0,0 -1.875,6.25 -6.875,9.921 0,0 -5,3.672 -12.5,3.672 0,0 -11.407,0 -18.125,-7.187 0,0 -6.719,-7.188 -6.719,-21.406 0,0 0,-15.313 6.797,-22.891 0,0 6.797,-7.578 17.89,-7.578 0,0 5.469,0 10.938,2.109 0,0 5.469,2.11 9.375,5.078 l 0,10.938 -19.844,0"
           inkscape:connector-curvature="0" />
        <path
           id="path3317"
           style="fill:#ffffff;fill-opacity:1;fill-rule:nonzero;stroke:none"
           d="m 455,581.406 0,-50 c 0,-27.613 22.387,-50 50,-50 l 20,0 c 27.613,0 50,22.387 50,50 l 0,50 c 0,27.614 -22.387,50 -50,50 l -20,0 c -27.613,0 -50,-22.386 -50,-50"
           inkscape:connector-curvature="0" />
        <path
           id="path3319"
           style="fill:#000000;fill-opacity:1;fill-rule:nonzero;stroke:none"
           d="m 538.75,552.969 16.719,-5.313 c 0,0 -3.75,-14.062 -12.813,-20.859 0,0 -9.062,-6.797 -22.812,-6.797 0,0 -17.188,0 -28.203,11.641 0,0 -11.016,11.64 -11.016,31.953 0,0 0,21.406 11.094,33.281 0,0 11.094,11.875 29.219,11.875 0,0 15.781,0 25.625,-9.219 0,0 5.781,-5.625 8.75,-15.937 l -17.188,-4.063 c 0,0 -1.562,6.719 -6.406,10.547 0,0 -4.844,3.828 -11.719,3.828 0,0 -9.531,0 -15.469,-6.797 0,0 -5.937,-6.796 -5.937,-22.265 0,0 0,-16.25 5.859,-23.125 0,0 5.86,-6.875 15.235,-6.875 0,0 6.875,0 11.875,4.375 0,0 5,4.375 7.187,13.75"
           inkscape:connector-curvature="0" />
        <path
           id="path3321"
           style="fill:#ffffff;fill-opacity:1;fill-rule:nonzero;stroke:none"
           d="m 365,381.406 0,-50 c 0,-27.613 22.387,-50 50,-50 l 20,0 c 27.613,0 50,22.387 50,50 l 0,50 c 0,27.614 -22.387,50 -50,50 l -20,0 c -27.613,0 -50,-22.386 -50,-50"
           inkscape:connector-curvature="0" />
        <path
           id="path3323"
           style="fill:#000000;fill-opacity:1;fill-rule:nonzero;stroke:none"
           d="m 393.594,407.344 17.344,0 0,-46.563 c 0,0 0,-11.093 0.625,-14.375 0,0 1.093,-5.312 5.312,-8.437 0,0 4.219,-3.125 11.563,-3.125 0,0 7.343,0 11.093,2.969 0,0 3.75,2.968 4.532,7.343 0,0 0.781,4.375 0.781,14.688 l 0,47.5 17.344,0 0,-45.156 c 0,0 0,-15.469 -1.407,-21.875 0,0 -1.406,-6.407 -5.234,-10.782 0,0 -3.828,-4.375 -10.156,-6.953 0,0 -6.328,-2.578 -16.485,-2.578 0,0 -12.343,0 -18.672,2.813 0,0 -6.328,2.812 -10,7.343 0,0 -3.671,4.532 -4.921,9.532 0,0 -1.719,7.343 -1.719,21.875 l 0,45.781"
           inkscape:connector-curvature="0" />
        <path
           id="path3325"
           style="fill:#ffffff;fill-opacity:1;fill-rule:nonzero;stroke:none"
           d="m 285,221.406 0,-50 c 0,-27.613 22.387,-50 50,-50 l 40,0 c 27.613,0 50,22.387 50,50 l 0,50 c 0,27.614 -22.387,50 -50,50 l -40,0 c -27.613,0 -50,-22.386 -50,-50"
           inkscape:connector-curvature="0" />
        <path
           id="path3327"
           style="fill:#000000;fill-opacity:1;fill-rule:nonzero;stroke:none"
           d="m 309.531,184.219 15.938,1.875 c 0,0 0.781,-6.094 4.14,-9.297 0,0 3.36,-3.203 8.047,-3.203 0,0 5.157,0 8.594,3.906 0,0 3.438,3.906 3.438,10.469 0,0 0,6.094 -3.36,9.765 0,0 -3.359,3.672 -8.047,3.672 0,0 -3.281,0 -7.656,-1.25 l 1.875,13.438 c 0,0 6.719,-0.156 10.234,2.89 0,0 3.516,3.047 3.516,8.204 0,0 0,4.218 -2.578,6.796 0,0 -2.578,2.579 -6.953,2.579 0,0 -4.219,0 -7.188,-2.891 0,0 -2.968,-2.891 -3.593,-8.516 l -15.157,2.5 c 0,0 1.563,7.813 4.766,12.5 0,0 3.203,4.688 8.906,7.344 0,0 5.703,2.656 12.735,2.656 0,0 12.187,0 19.531,-7.656 0,0 5.937,-6.406 5.937,-14.375 0,0 0,-11.25 -12.343,-17.969 0,0 7.5,-1.718 11.875,-7.187 0,0 4.375,-5.469 4.375,-13.281 0,0 0,-11.25 -8.282,-19.219 0,0 -8.281,-7.969 -20.468,-7.969 0,0 -11.719,0 -19.375,6.719 0,0 -7.657,6.719 -8.907,17.5 z m 70.645,32.5 -2.969,16.094 0,14.531 17.813,0 0,-14.531 -2.657,-16.094 -12.187,0"
           inkscape:connector-curvature="0" />
        <text
           xml:space="preserve"
           style="font-size:320px;font-style:normal;font-weight:normal;line-height:125%;letter-spacing:0px;word-spacing:0px;fill:#000000;fill-opacity:1;stroke:none;font-family:Sans"
           x="1408.9624"
           y="-2582.9456"
           id="text3500"
           sodipodi:linespacing="125%"
           transform="scale(1,-1)"><tspan
             sodipodi:role="line"
             id="tspan3502"
             x="1408.9624"
             y="-2582.9456"
             style="font-size:120px;font-style:normal;font-variant:normal;font-weight:bold;font-stretch:normal;fill:#ff0000;fill-opacity:1;font-family:Arial;-inkscape-font-specification:Arial Bold">A</tspan></text>
        <text
           xml:space="preserve"
           style="font-size:320px;font-style:normal;font-weight:normal;line-height:125%;letter-spacing:0px;word-spacing:0px;fill:#000000;fill-opacity:1;stroke:none;font-family:Sans"
           x="1720.3518"
           y="-2639.1204"
           id="text3500-1"
           sodipodi:linespacing="125%"
           transform="scale(1,-1)"><tspan
             sodipodi:role="line"
             id="tspan3502-1"
             x="1720.3518"
             y="-2639.1204"
             style="font-size:120px;font-style:normal;font-variant:normal;font-weight:bold;font-stretch:normal;font-family:Arial;-inkscape-font-specification:Arial Bold;fill:#ff0000">D</tspan></text>
        <text
           xml:space="preserve"
           style="font-size:320px;font-style:normal;font-weight:normal;line-height:125%;letter-spacing:0px;word-spacing:0px;fill:#000000;fill-opacity:1;stroke:none;font-family:Sans"
           x="2025.8562"
           y="-2622.9578"
           id="text3500-1-4"
           sodipodi:linespacing="125%"
           transform="scale(1,-1)"><tspan
             sodipodi:role="line"
             id="tspan3502-1-0"
             x="2025.8562"
             y="-2622.9578"
             style="font-size:120px;font-style:normal;font-variant:normal;font-weight:bold;font-stretch:normal;font-family:Arial;-inkscape-font-specification:Arial Bold;fill:#ff0000">P</tspan></text>
        <text
           xml:space="preserve"
           style="font-size:320px;font-style:normal;font-weight:normal;line-height:125%;letter-spacing:0px;word-spacing:0px;fill:#000000;fill-opacity:1;stroke:none;font-family:Sans"
           x="1364.7781"
           y="-2255.2622"
           id="text3500-3"
           sodipodi:linespacing="125%"
           transform="scale(1,-1)"><tspan
             sodipodi:role="line"
             id="tspan3502-3"
             x="1364.7781"
             y="-2255.2622"
             style="font-size:120px;font-style:normal;font-variant:normal;font-weight:bold;font-stretch:normal;font-family:Arial;-inkscape-font-specification:Arial Bold;fill:#ff0000">M</tspan></text>
        <text
           xml:space="preserve"
           style="font-size:320px;font-style:normal;font-weight:normal;line-height:125%;letter-spacing:0px;word-spacing:0px;fill:#000000;fill-opacity:1;stroke:none;font-family:Sans"
           x="1837.5295"
           y="-2323.9526"
           id="text3500-15"
           sodipodi:linespacing="125%"
           transform="scale(1,-1)"><tspan
             sodipodi:role="line"
             id="tspan3502-8"
             x="1837.5295"
             y="-2323.9526"
             style="font-size:120px;font-style:normal;font-variant:normal;font-weight:bold;font-stretch:normal;font-family:Arial;-inkscape-font-specification:Arial Bold;fill:#ff0000">L</tspan></text>
        <text
           xml:space="preserve"
           style="font-size:320px;font-style:normal;font-weight:normal;line-height:125%;letter-spacing:0px;word-spacing:0px;fill:#000000;fill-opacity:1;stroke:none;font-family:Sans"
           x="2067.8442"
           y="-2247.1812"
           id="text3500-30"
           sodipodi:linespacing="125%"
           transform="scale(1,-1)"><tspan
             sodipodi:role="line"
             id="tspan3502-5"
             x="2067.8442"
             y="-2247.1812"
             style="font-size:120px;font-style:normal;font-variant:normal;font-weight:bold;font-stretch:normal;font-family:Arial;-inkscape-font-specification:Arial Bold;fill:#ff0000">T</tspan></text>
        <text
           xml:space="preserve"
           style="font-size:320px;font-style:normal;font-weight:normal;line-height:125%;letter-spacing:0px;word-spacing:0px;fill:#000000;fill-opacity:1;stroke:none;font-family:Sans"
           x="2281.9966"
           y="-2105.7595"
           id="text3500-10"
           sodipodi:linespacing="125%"
           transform="scale(1,-1)"><tspan
             sodipodi:role="line"
             id="tspan3502-2"
             x="2281.9966"
             y="-2105.7595"
             style="font-size:120px;font-style:normal;font-variant:normal;font-weight:bold;font-stretch:normal;font-family:Arial;-inkscape-font-specification:Arial Bold;fill:#ff0000">I</tspan></text>
        <text
           xml:space="preserve"
           style="font-size:320px;font-style:normal;font-weight:normal;line-height:125%;letter-spacing:0px;word-spacing:0px;fill:#000000;fill-opacity:1;stroke:none;font-family:Sans"
           x="1593.3855"
           y="-2325.0364"
           id="text3500-3-5"
           sodipodi:linespacing="125%"
           transform="scale(1,-1)"><tspan
             sodipodi:role="line"
             id="tspan3502-3-1"
             x="1593.3855"
             y="-2325.0364"
             style="font-size:120px;font-style:normal;font-variant:normal;font-weight:bold;font-stretch:normal;fill:#ff0000;font-family:Arial;-inkscape-font-specification:Arial Bold">U</tspan></text>
      </g>
    </g>
  </g>
</svg>
